<mxfile host="app.diagrams.net" agent="Mozilla/5.0 (Windows NT 10.0; Win64; x64) AppleWebKit/537.36 (KHTML, like Gecko) Chrome/137.0.0.0 Safari/537.36" version="27.2.0">
  <diagram name="Page-1" id="I1FHyaOTAU-nas7kCPJz">
    <mxGraphModel dx="1042" dy="608" grid="1" gridSize="10" guides="1" tooltips="1" connect="1" arrows="1" fold="1" page="1" pageScale="1" pageWidth="850" pageHeight="1100" math="0" shadow="0">
      <root>
        <mxCell id="0" />
        <mxCell id="1" parent="0" />
        <mxCell id="l4saIsvpHBig4WGc_eLC-1" value="Plan &amp;amp; Book" style="swimlane;horizontal=0;whiteSpace=wrap;html=1;" parent="1" vertex="1">
          <mxGeometry x="20" y="70" width="730" height="510" as="geometry" />
        </mxCell>
        <mxCell id="l4saIsvpHBig4WGc_eLC-8" style="edgeStyle=orthogonalEdgeStyle;rounded=0;orthogonalLoop=1;jettySize=auto;html=1;entryX=0.5;entryY=0;entryDx=0;entryDy=0;" parent="l4saIsvpHBig4WGc_eLC-1" source="l4saIsvpHBig4WGc_eLC-3" target="l4saIsvpHBig4WGc_eLC-4" edge="1">
          <mxGeometry relative="1" as="geometry" />
        </mxCell>
        <mxCell id="l4saIsvpHBig4WGc_eLC-9" style="edgeStyle=orthogonalEdgeStyle;rounded=0;orthogonalLoop=1;jettySize=auto;html=1;entryX=0.5;entryY=0;entryDx=0;entryDy=0;" parent="l4saIsvpHBig4WGc_eLC-1" source="l4saIsvpHBig4WGc_eLC-3" target="l4saIsvpHBig4WGc_eLC-5" edge="1">
          <mxGeometry relative="1" as="geometry" />
        </mxCell>
        <mxCell id="l4saIsvpHBig4WGc_eLC-10" style="edgeStyle=orthogonalEdgeStyle;rounded=0;orthogonalLoop=1;jettySize=auto;html=1;" parent="l4saIsvpHBig4WGc_eLC-1" source="l4saIsvpHBig4WGc_eLC-3" target="l4saIsvpHBig4WGc_eLC-6" edge="1">
          <mxGeometry relative="1" as="geometry" />
        </mxCell>
        <mxCell id="l4saIsvpHBig4WGc_eLC-11" style="edgeStyle=orthogonalEdgeStyle;rounded=0;orthogonalLoop=1;jettySize=auto;html=1;" parent="l4saIsvpHBig4WGc_eLC-1" source="l4saIsvpHBig4WGc_eLC-3" target="l4saIsvpHBig4WGc_eLC-7" edge="1">
          <mxGeometry relative="1" as="geometry" />
        </mxCell>
        <mxCell id="l4saIsvpHBig4WGc_eLC-3" value="To Type of service page to book" style="ellipse;whiteSpace=wrap;html=1;" parent="l4saIsvpHBig4WGc_eLC-1" vertex="1">
          <mxGeometry x="310" width="110" height="90" as="geometry" />
        </mxCell>
        <mxCell id="l4saIsvpHBig4WGc_eLC-18" style="edgeStyle=orthogonalEdgeStyle;rounded=0;orthogonalLoop=1;jettySize=auto;html=1;entryX=0.5;entryY=0;entryDx=0;entryDy=0;" parent="l4saIsvpHBig4WGc_eLC-1" source="l4saIsvpHBig4WGc_eLC-4" target="l4saIsvpHBig4WGc_eLC-14" edge="1">
          <mxGeometry relative="1" as="geometry" />
        </mxCell>
        <mxCell id="l4saIsvpHBig4WGc_eLC-4" value="Flights" style="rounded=0;whiteSpace=wrap;html=1;" parent="l4saIsvpHBig4WGc_eLC-1" vertex="1">
          <mxGeometry x="60" y="160" width="120" height="60" as="geometry" />
        </mxCell>
        <mxCell id="l4saIsvpHBig4WGc_eLC-19" style="edgeStyle=orthogonalEdgeStyle;rounded=0;orthogonalLoop=1;jettySize=auto;html=1;entryX=0.5;entryY=0;entryDx=0;entryDy=0;" parent="l4saIsvpHBig4WGc_eLC-1" source="l4saIsvpHBig4WGc_eLC-5" target="l4saIsvpHBig4WGc_eLC-15" edge="1">
          <mxGeometry relative="1" as="geometry" />
        </mxCell>
        <mxCell id="l4saIsvpHBig4WGc_eLC-5" value="Bus" style="rounded=0;whiteSpace=wrap;html=1;" parent="l4saIsvpHBig4WGc_eLC-1" vertex="1">
          <mxGeometry x="220" y="160" width="120" height="60" as="geometry" />
        </mxCell>
        <mxCell id="l4saIsvpHBig4WGc_eLC-20" style="edgeStyle=orthogonalEdgeStyle;rounded=0;orthogonalLoop=1;jettySize=auto;html=1;" parent="l4saIsvpHBig4WGc_eLC-1" source="l4saIsvpHBig4WGc_eLC-6" target="l4saIsvpHBig4WGc_eLC-16" edge="1">
          <mxGeometry relative="1" as="geometry" />
        </mxCell>
        <mxCell id="l4saIsvpHBig4WGc_eLC-6" value="Train" style="rounded=0;whiteSpace=wrap;html=1;" parent="l4saIsvpHBig4WGc_eLC-1" vertex="1">
          <mxGeometry x="390" y="160" width="120" height="60" as="geometry" />
        </mxCell>
        <mxCell id="l4saIsvpHBig4WGc_eLC-21" style="edgeStyle=orthogonalEdgeStyle;rounded=0;orthogonalLoop=1;jettySize=auto;html=1;" parent="l4saIsvpHBig4WGc_eLC-1" source="l4saIsvpHBig4WGc_eLC-7" target="l4saIsvpHBig4WGc_eLC-17" edge="1">
          <mxGeometry relative="1" as="geometry" />
        </mxCell>
        <mxCell id="l4saIsvpHBig4WGc_eLC-7" value="Rent Car or Boat" style="rounded=0;whiteSpace=wrap;html=1;" parent="l4saIsvpHBig4WGc_eLC-1" vertex="1">
          <mxGeometry x="570" y="160" width="120" height="60" as="geometry" />
        </mxCell>
        <mxCell id="l4saIsvpHBig4WGc_eLC-14" value="Take user to flight page for data entry" style="rounded=0;whiteSpace=wrap;html=1;" parent="l4saIsvpHBig4WGc_eLC-1" vertex="1">
          <mxGeometry x="60" y="270" width="120" height="60" as="geometry" />
        </mxCell>
        <mxCell id="l4saIsvpHBig4WGc_eLC-15" value="Take user to bus page for data entry" style="rounded=0;whiteSpace=wrap;html=1;" parent="l4saIsvpHBig4WGc_eLC-1" vertex="1">
          <mxGeometry x="220" y="270" width="120" height="60" as="geometry" />
        </mxCell>
        <mxCell id="l4saIsvpHBig4WGc_eLC-16" value="Take user to train page for data entry" style="rounded=0;whiteSpace=wrap;html=1;" parent="l4saIsvpHBig4WGc_eLC-1" vertex="1">
          <mxGeometry x="390" y="270" width="120" height="60" as="geometry" />
        </mxCell>
        <mxCell id="l4saIsvpHBig4WGc_eLC-17" value="Take user to rental page for data entry" style="rounded=0;whiteSpace=wrap;html=1;" parent="l4saIsvpHBig4WGc_eLC-1" vertex="1">
          <mxGeometry x="570" y="270" width="120" height="60" as="geometry" />
        </mxCell>
        <mxCell id="l4saIsvpHBig4WGc_eLC-22" value="Take user to flight results page" style="rounded=0;whiteSpace=wrap;html=1;" parent="l4saIsvpHBig4WGc_eLC-1" vertex="1">
          <mxGeometry x="60" y="370" width="120" height="60" as="geometry" />
        </mxCell>
        <mxCell id="l4saIsvpHBig4WGc_eLC-23" value="Take user to bus results page" style="rounded=0;whiteSpace=wrap;html=1;" parent="l4saIsvpHBig4WGc_eLC-1" vertex="1">
          <mxGeometry x="220" y="370" width="120" height="60" as="geometry" />
        </mxCell>
        <mxCell id="l4saIsvpHBig4WGc_eLC-25" value="Take user to train results page" style="rounded=0;whiteSpace=wrap;html=1;" parent="l4saIsvpHBig4WGc_eLC-1" vertex="1">
          <mxGeometry x="390" y="370" width="120" height="60" as="geometry" />
        </mxCell>
        <mxCell id="l4saIsvpHBig4WGc_eLC-26" value="Take user to train results page" style="rounded=0;whiteSpace=wrap;html=1;" parent="l4saIsvpHBig4WGc_eLC-1" vertex="1">
          <mxGeometry x="570" y="372" width="120" height="60" as="geometry" />
        </mxCell>
      </root>
    </mxGraphModel>
  </diagram>
</mxfile>
